<svg xmlns="http://www.w3.org/2000/svg" viewBox="0 0 256 256">
  <style>
    .ink { fill: #111111; }
    @media (prefers-color-scheme: dark) {
      .ink { fill: #e8e6df; }
    }
  </style>
  <g transform="translate(43.135 212.405) scale(0.241225)"><path class="ink" d="M14.160-26.855L14.160-26.855Q15.137-32.715 22.949-33.203L22.949-33.203Q67.871-33.203 81.055-47.852L81.055-47.852Q87.891-55.664 101.074-85.938L101.074-85.938Q113.281-115.723 117.188-126.953L117.188-126.953L305.176-638.184L297.852-664.063Q296.875-666.016 298.340-667.480Q299.805-668.945 302.979-669.922Q306.152-670.898 309.570-671.387Q312.988-671.875 317.383-671.875Q321.777-671.875 324.951-671.875Q328.125-671.875 332.031-671.875L332.031-671.875L334.961-671.875Q379.883-671.875 387.207-662.109L387.207-662.109Q438.965-524.902 480.469-415.527Q521.973-306.152 544.922-245.117Q567.871-184.082 574.219-166.992L574.219-166.992Q583.984-141.113 602.051-88.867L602.051-88.867Q615.234-52.734 628.662-41.260Q642.090-29.785 674.805-29.785L674.805-29.785L682.129-29.785Q687.988-29.785 690.430-21.484L690.430-21.484Q691.406-17.578 691.406-13.184Q691.406-8.789 690.430-4.883L690.430-4.883Q687.988 3.906 682.129 3.906L682.129 3.906Q618.164 0.977 542.480 0.977L542.480 0.977Q481.934 0.977 414.063 2.930L414.063 2.930Q406.250 2.930 402.832-4.883L402.832-4.883Q401.855-7.813 401.855-17.090L401.855-17.090Q401.855-26.855 406.006-30.029Q410.156-33.203 419.922-33.203L419.922-33.203L465.820-33.203Q496.582-34.180 504.883-46.875L504.883-46.875Q508.301-52.246 508.301-60.059L508.301-60.059Q508.301-70.801 501.953-86.914L501.953-86.914Q489.746-119.141 467.773-178.467Q445.801-237.793 434.082-270.020L434.082-270.020Q432.129-275.879 422.607-280.029Q413.086-284.180 405.762-283.203L405.762-283.203Q379.395-281.738 340.332-281.738Q301.270-281.738 250-283.203L250-283.203Q245.117-283.203 241.943-281.006Q238.770-278.809 236.816-277.344Q234.863-275.879 232.422-271.973Q229.980-268.066 229.004-266.113L229.004-266.113Q203.125-181.152 165.039-92.773L165.039-92.773Q157.227-73.730 157.227-59.082L157.227-59.082Q157.227-33.203 213.867-32.227L213.867-32.227Q220.703-32.227 231.445-33.203Q242.188-34.180 250.977-33.203L250.977-33.203Q257.813-32.227 257.813-14.160L257.813-14.160Q255.859 2.930 250.977 2.930L250.977 2.930Q167.480 1.465 113.281 1.465Q59.082 1.465 34.180 2.930L34.180 2.930L22.949 2.930Q12.207 0.977 12.207-13.184L12.207-13.184Q12.207-19.043 14.160-26.855ZM261.230-354.980L261.230-354.980Q260.742-354.004 260.742-353.027L260.742-353.027Q260.742-345.703 272.949-339.844L272.949-339.844Q304.199-338.867 334.717-338.867Q365.234-338.867 394.043-339.844L394.043-339.844Q398.926-339.844 401.367-344.727L401.367-344.727Q402.832-347.656 402.832-350.586L402.832-350.586Q402.832-353.027 401.855-354.980L401.855-354.980Q368.652-446.777 340.820-537.109L340.820-537.109Q338.867-541.992 334.473-543.457L334.473-543.457Q333.496-543.945 332.520-543.945L332.520-543.945Q329.590-543.945 328.125-540.039L328.125-540.039Q309.082-478.027 261.230-354.980Z"/></g>
</svg>
